<mxfile host="app.diagrams.net" modified="2022-01-18T03:13:44.660Z" agent="5.0 (Windows NT 10.0; WOW64) AppleWebKit/537.36 (KHTML, like Gecko) Chrome/70.0.3538.67 Safari/537.36" etag="4pLkbNZiBN2CSR0LIiMD" version="16.2.4" type="github">
  <diagram id="oUMeTNJKPiOXNCGt0fQ-" name="Page-1">
    <mxGraphModel dx="813" dy="454" grid="1" gridSize="10" guides="1" tooltips="1" connect="1" arrows="1" fold="1" page="1" pageScale="1" pageWidth="827" pageHeight="1169" math="0" shadow="0">
      <root>
        <mxCell id="0" />
        <mxCell id="1" parent="0" />
        <mxCell id="w0BuShdazBpQK55fYq26-4" value="&lt;font color=&quot;#ff0000&quot;&gt;不允许使用&lt;/font&gt;" style="rounded=0;whiteSpace=wrap;html=1;shadow=1;strokeColor=#FFFFFF;" vertex="1" parent="1">
          <mxGeometry x="260" y="80" width="120" height="260" as="geometry" />
        </mxCell>
        <mxCell id="w0BuShdazBpQK55fYq26-11" value="" style="rounded=0;whiteSpace=wrap;html=1;fontSize=10;strokeWidth=0;fillColor=#FFFF66;" vertex="1" parent="1">
          <mxGeometry x="260" y="82" width="120" height="80" as="geometry" />
        </mxCell>
        <mxCell id="w0BuShdazBpQK55fYq26-8" value="&lt;font style=&quot;font-size: 10px&quot; color=&quot;#67ab9f&quot;&gt;内核空间地址&lt;/font&gt;" style="text;html=1;resizable=0;autosize=1;align=center;verticalAlign=middle;points=[];fillColor=none;strokeColor=none;rounded=0;strokeWidth=0;" vertex="1" parent="1">
          <mxGeometry x="275" y="110" width="90" height="20" as="geometry" />
        </mxCell>
        <mxCell id="w0BuShdazBpQK55fYq26-12" value="" style="rounded=0;whiteSpace=wrap;html=1;fontSize=10;strokeWidth=0;fillColor=#FFCCCC;" vertex="1" parent="1">
          <mxGeometry x="260" y="270" width="120" height="70" as="geometry" />
        </mxCell>
        <mxCell id="w0BuShdazBpQK55fYq26-9" value="&lt;font style=&quot;font-size: 10px&quot; color=&quot;#67ab9f&quot;&gt;用户空间地址&lt;/font&gt;" style="text;html=1;resizable=0;autosize=1;align=center;verticalAlign=middle;points=[];fillColor=none;strokeColor=none;rounded=0;strokeWidth=0;" vertex="1" parent="1">
          <mxGeometry x="275" y="295" width="90" height="20" as="geometry" />
        </mxCell>
        <mxCell id="w0BuShdazBpQK55fYq26-13" value="0xFFFF FFE0 0000 0000" style="text;html=1;resizable=0;autosize=1;align=center;verticalAlign=middle;points=[];fillColor=none;strokeColor=none;rounded=0;shadow=1;fontSize=10;fontColor=#66B2FF;" vertex="1" parent="1">
          <mxGeometry x="400" y="150" width="150" height="20" as="geometry" />
        </mxCell>
        <mxCell id="w0BuShdazBpQK55fYq26-14" value="0xFFFF FFFF&amp;nbsp; FFFF FFFF&amp;nbsp;" style="text;html=1;resizable=0;autosize=1;align=center;verticalAlign=middle;points=[];fillColor=none;strokeColor=none;rounded=0;shadow=1;fontSize=10;fontColor=#66B2FF;" vertex="1" parent="1">
          <mxGeometry x="390" y="70" width="160" height="20" as="geometry" />
        </mxCell>
        <mxCell id="w0BuShdazBpQK55fYq26-15" value="0x0000 0020 0000 0000" style="text;html=1;resizable=0;autosize=1;align=center;verticalAlign=middle;points=[];fillColor=none;strokeColor=none;rounded=0;shadow=1;fontSize=10;fontColor=#66B2FF;" vertex="1" parent="1">
          <mxGeometry x="400" y="260" width="140" height="20" as="geometry" />
        </mxCell>
        <mxCell id="w0BuShdazBpQK55fYq26-16" value="&lt;font&gt;0x0000 0000 0000 0000&lt;/font&gt;" style="text;html=1;resizable=0;autosize=1;align=center;verticalAlign=middle;points=[];fillColor=none;strokeColor=none;rounded=0;shadow=1;fontSize=10;fontColor=#66B2FF;" vertex="1" parent="1">
          <mxGeometry x="400" y="330" width="140" height="20" as="geometry" />
        </mxCell>
        <mxCell id="w0BuShdazBpQK55fYq26-17" value="&lt;font color=&quot;#6b8a84&quot;&gt;RISCV 64虚拟地址空间分布&lt;/font&gt;" style="text;html=1;resizable=0;autosize=1;align=center;verticalAlign=middle;points=[];fillColor=none;strokeColor=none;rounded=0;shadow=1;fontSize=10;fontColor=#FF0000;" vertex="1" parent="1">
          <mxGeometry x="300" y="360" width="160" height="20" as="geometry" />
        </mxCell>
      </root>
    </mxGraphModel>
  </diagram>
</mxfile>
